<?xml version="1.0" encoding="UTF-8"?>
<svg id="Layer_1" data-name="Layer 1" xmlns="http://www.w3.org/2000/svg" viewBox="0 0 15 2.89">
  <defs>
    <style>
      .cls-1 {
        fill: none;
        stroke: #435a29;
        stroke-miterlimit: 10;
        stroke-width: .08px;
      }

      .cls-2 {
        fill: #435a29;
      }
    </style>
  </defs>
  <g>
    <path class="cls-2" d="M1.07,1.39c-.07,.03-.2,.07-.37,.07C.3,1.46,0,1.21,0,.74S.3,0,.74,0c.18,0,.29,.04,.34,.06l-.04,.15c-.07-.03-.17-.06-.29-.06C.41,.15,.19,.37,.19,.74c0,.35,.2,.57,.54,.57,.11,0,.22-.02,.3-.06l.04,.14Z"/>
    <path class="cls-2" d="M1.76,.02V.61h.68V.02h.18V1.44h-.18V.77h-.68v.66h-.18V.02h.18Z"/>
    <path class="cls-2" d="M3.23,.04c.09-.02,.22-.03,.35-.03,.2,0,.32,.04,.41,.12,.07,.06,.11,.16,.11,.27,0,.19-.12,.31-.27,.36h0c.11,.04,.17,.14,.21,.29,.05,.2,.08,.33,.11,.39h-.19s-.05-.16-.09-.34c-.04-.2-.12-.27-.28-.27h-.17v.61h-.18V.04Zm.18,.64h.19c.2,0,.32-.11,.32-.27,0-.18-.13-.26-.33-.26-.09,0-.15,0-.18,.02V.69Z"/>
    <path class="cls-2" d="M4.82,.02V1.44h-.18V.02h.18Z"/>
    <path class="cls-2" d="M5.39,1.22c.08,.05,.2,.09,.33,.09,.19,0,.3-.1,.3-.24,0-.13-.08-.21-.27-.28-.23-.08-.37-.2-.37-.4,0-.22,.18-.38,.46-.38,.14,0,.25,.03,.31,.07l-.05,.15s-.14-.07-.27-.07c-.19,0-.27,.12-.27,.21,0,.13,.09,.2,.28,.27,.24,.09,.36,.21,.36,.42,0,.22-.16,.41-.5,.41-.14,0-.29-.04-.36-.09l.05-.15Z"/>
    <path class="cls-2" d="M7,.18h-.43V.02h1.05V.18h-.43V1.44h-.18V.18Z"/>
    <path class="cls-2" d="M9.21,.72c0,.49-.3,.75-.66,.75s-.64-.29-.64-.72c0-.45,.28-.74,.66-.74s.64,.3,.64,.72Zm-1.1,.02c0,.3,.16,.57,.45,.57s.45-.27,.45-.59c0-.28-.15-.58-.45-.58s-.45,.28-.45,.59Z"/>
    <path class="cls-2" d="M9.72,.04c.09-.01,.2-.03,.35-.03,.18,0,.31,.04,.4,.12,.08,.07,.12,.17,.12,.3s-.04,.23-.11,.3c-.1,.1-.25,.16-.43,.16-.05,0-.1,0-.15-.01v.57h-.18V.04Zm.18,.68s.09,.01,.15,.01c.22,0,.35-.11,.35-.3s-.13-.28-.33-.28c-.08,0-.14,0-.17,.01V.72Z"/>
    <path class="cls-2" d="M11.3,.02V.61h.68V.02h.18V1.44h-.18V.77h-.68v.66h-.18V.02h.18Z"/>
    <path class="cls-2" d="M13.5,.77h-.55v.51h.61v.15h-.8V.02h.76V.18h-.58v.45h.55v.15Z"/>
    <path class="cls-2" d="M14.08,.04c.09-.02,.22-.03,.35-.03,.2,0,.32,.04,.41,.12,.07,.06,.11,.16,.11,.27,0,.19-.12,.31-.27,.36h0c.11,.04,.17,.14,.21,.29,.05,.2,.08,.33,.11,.39h-.19s-.05-.16-.09-.34c-.04-.2-.12-.27-.28-.27h-.17v.61h-.18V.04Zm.18,.64h.19c.2,0,.32-.11,.32-.27,0-.18-.13-.26-.33-.26-.09,0-.15,0-.18,.02V.69Z"/>
  </g>
  <g>
    <path class="cls-2" d="M3.45,1.81c.07-.01,.16-.02,.27-.02,.14,0,.24,.03,.31,.09,.06,.05,.1,.13,.1,.23s-.03,.18-.08,.23c-.07,.08-.2,.12-.33,.12-.04,0-.08,0-.11,0v.44h-.14V1.81Zm.14,.53s.07,.01,.12,.01c.17,0,.27-.08,.27-.23s-.1-.21-.26-.21c-.06,0-.11,0-.13,.01v.42Z"/>
    <path class="cls-2" d="M5.1,2.38h-.42v.39h.47v.12h-.61V1.8h.59v.12h-.45v.34h.42v.12Z"/>
    <path class="cls-2" d="M5.72,2.55l-.11,.34h-.15l.37-1.09h.17l.37,1.09h-.15l-.12-.34h-.39Zm.36-.11l-.11-.31c-.02-.07-.04-.14-.06-.2h0c-.02,.06-.03,.13-.05,.2l-.11,.32h.33Z"/>
    <path class="cls-2" d="M6.75,1.82c.07-.01,.17-.02,.27-.02,.15,0,.25,.03,.32,.09,.06,.05,.09,.12,.09,.21,0,.14-.09,.24-.21,.28h0c.08,.03,.13,.11,.16,.22,.04,.15,.06,.26,.08,.3h-.15s-.04-.12-.07-.26c-.03-.15-.09-.21-.22-.21h-.13v.47h-.14V1.82Zm.14,.5h.14c.15,0,.25-.08,.25-.21,0-.14-.1-.2-.25-.2-.07,0-.12,0-.14,.01v.4Z"/>
    <path class="cls-2" d="M8.05,1.92h-.33v-.12h.81v.12h-.33v.97h-.14v-.97Z"/>
    <path class="cls-2" d="M8.87,1.82c.07-.01,.17-.02,.27-.02,.15,0,.25,.03,.32,.09,.06,.05,.09,.12,.09,.21,0,.14-.09,.24-.21,.28h0c.08,.03,.13,.11,.16,.22,.04,.15,.06,.26,.08,.3h-.15s-.04-.12-.07-.26c-.03-.15-.09-.21-.22-.21h-.13v.47h-.14V1.82Zm.14,.5h.14c.15,0,.25-.08,.25-.21,0-.14-.1-.2-.25-.2-.07,0-.12,0-.14,.01v.4Z"/>
    <path class="cls-2" d="M10.52,2.38h-.42v.39h.47v.12h-.61V1.8h.59v.12h-.45v.34h.42v.12Z"/>
    <path class="cls-2" d="M11.53,2.38h-.42v.39h.47v.12h-.61V1.8h.59v.12h-.45v.34h.42v.12Z"/>
  </g>
  <line class="cls-1" x1="2.94" y1="2.38" y2="2.38"/>
  <line class="cls-1" x1="15" y1="2.38" x2="12.06" y2="2.38"/>
</svg>