<svg xmlns="http://www.w3.org/2000/svg" viewBox="0 0 3150 2100"><path style="fill:#fff" d="M0 0h3150v2100H0z"/><path d="m2938.57 427.8-635.75 457.4-182.43-187.11 801.14-269.65-856.69 211.18-230.89-210.26s1097.42-24.57 1118.75-23.09c21.33 1.48-898.77 214.08-903.88 214.98-5.11.91 48.56 214.37 49.46 219.47.91 5.11 16.81-132.9 16.81-132.9l189.24 197.57c266.03 357.13-496.87 184.99-940.74 56.56-185.11-53.56 111.46 328.7 136.7 549.16 37.39 326.55-548.78-140.72-811.15 51.33-176.49 129.19-229.6 471.5-672.74 483.67" style="fill:none;fill-rule:evenodd;stroke:#363435;stroke-linecap:round;stroke-linejoin:round;stroke-width:6px"/></svg>